<svg xmlns="http://www.w3.org/2000/svg" version="1.1" xmlns:xlink="http://www.w3.org/1999/xlink" viewBox="0 0 27.222393137392494 28.11306027818059"><g transform="matrix(0.8571428571428571,0,0,0.8571428571428571,6.763370475418721,23.591940061294572)"><rect width="32.65012580107934" height="32.65012580107934" x="-8.335932458382555" y="-27.449707809777994" fill="#ffffff"></rect><g transform="matrix(1,0,0,1,0,0)" clip-path="url(#SvgjsClipPath41759)"><g clip-path="url(#SvgjsClipPath417549ee28cc3-5fbf-489a-abc0-ad1c16a4ba20)"><path d=" M 14.95158156315402 -9.94570902243462 C 16.079366421703135 -11.413125642983587 16.996501809546245 -12.912301722192845 17.69456174785509 -14.379718342741812 C 17.896137087515307 -14.800369131936282 18.07956416508393 -15.22101992113075 18.244842980560954 -15.637133644802322 C 18.298639614618182 -15.771301153836614 18.35243624867541 -15.900931597348006 18.401695817209742 -16.035099106382297 C 18.544937457289826 -16.415564458088237 18.670030835278325 -16.796029809794174 18.782161168915678 -17.167421030454314 C 19.086144558949897 -18.192149686411874 19.26957163651852 -19.176692904880902 19.33244240162154 -20.098365358246905 C 19.117904017610186 -19.275212041949562 18.82234660640421 -18.429373398037725 18.44641832022117 -17.566034644251847 C 18.33039907327847 -17.293162560660363 18.204657543072422 -17.020290477068883 18.070490034038137 -16.742881327954503 C 17.98558209353817 -16.57306544695458 17.90067415303821 -16.3980643482142 17.811229147015347 -16.22824846721427 C 17.667987506935262 -15.946302252576995 17.511134670286474 -15.664356037939715 17.350392920332347 -15.382409823302435 C 16.79103755658069 -14.388792473787609 16.128625990237467 -13.391286210967442 15.36834343904315 -12.411280058021312 C 11.144335437224413 -6.921430775313825 5.318743305822421 -3.6100210958152985 1.2379769440837771 -4.0572461259296055 C 1.1349207414922198 -4.1466911319524655 1.0318645389006624 -4.245210269021122 0.9294564885266619 -4.343729406089782 C 0.8801969199923318 -4.39298897462411 0.8264002859351045 -4.442248543158442 0.7816777829236745 -4.496045177215674 L 0.7771407174007754 -4.496045177215674 C 0.5263058092062307 -4.750768998715561 0.2851931842750397 -5.019752169001698 0.06093251700032987 -5.301698383638978 C -0.462774474785697 -5.964109949982198 -0.9054624393771031 -6.697818260256678 -1.2587053979456488 -7.4807861390654935 C -1.818060761697309 -8.733664375603103 -2.1265812172544236 -10.120710121175005 -2.1265812172544236 -11.579052610678175 C -2.1272293694719817 -17.153809833885617 2.4052990879038667 -21.690875356784368 7.980056311111316 -21.690875356784368 C 10.083310257083662 -21.690875356784368 12.03813734523547 -21.042074987009848 13.657869736910323 -19.93697545607522 C 13.926204754978903 -19.7535483785066 14.19000270752459 -19.556510104369284 14.440837615719134 -19.34650878588083 C 14.844636447257122 -19.012710393838994 15.220564733440161 -18.649096999789535 15.567974322050693 -18.25761306038513 C 15.52519627569193 -18.14159381344243 15.481770077115618 -18.023630109847065 15.433806813016401 -17.902425645163913 C 14.936674062150209 -16.61325088444311 14.293707062333704 -15.322779819287195 13.519813314570689 -14.064068212791572 C 13.43296091741806 -13.92147472492904 13.343515911395192 -13.780177541501622 13.254070905372332 -13.640176662509319 L 13.254070905372332 -17.30807006166418 L 11.611653186082986 -17.30807006166418 L 11.611653186082986 -11.357384552273691 C 11.27331772851825 -10.938030067514335 10.924611835472604 -10.532934931541233 10.56877626803383 -10.144691753224611 L 10.56877626803383 -19.546139668888372 L 8.926358548744481 -19.546139668888372 L 8.926358548744481 -8.521070448244416 C 8.581541569004179 -8.213198144904856 8.23348382817609 -7.920881494786666 7.883481630695329 -7.646713106760069 L 7.883481630695329 -16.413620001435564 L 6.2410639114059805 -16.413620001435564 L 6.2410639114059805 -6.498835529466685 C 6.1859709729136405 -6.465131614153723 6.131526186638855 -6.431427698840761 6.076433248146511 -6.398371935745356 C 6.130878034421299 -6.423649872230076 6.1859709729136405 -6.4495759609323535 6.2410639114059805 -6.475502049634635 L 6.2410639114059805 -6.474205745199519 C 6.272823370066273 -6.489113246203328 6.303934676509007 -6.504668899424697 6.335694135169298 -6.520224552646063 C 6.341527505127312 -6.52281716151629 6.346712722867766 -6.525409770386521 6.352546092825779 -6.528002379256748 C 6.433565120020399 -6.567539664527722 6.514584147215018 -6.607076949798699 6.596251326627195 -6.6485586917223465 C 6.603381001020322 -6.652447605027689 6.610510675413449 -6.6556883661154735 6.618288502024132 -6.659577279420812 C 6.701900138088982 -6.701707173562017 6.784863621936273 -6.74513337213833 6.868475258001123 -6.789207722932204 C 6.89051243339806 -6.800874462848231 6.913197761012553 -6.813189354981812 6.93523493640949 -6.824856094897839 C 6.989031570466718 -6.854022944687902 7.043476356741502 -6.882541642260406 7.09727299079873 -6.91235664426803 C 7.139402884939933 -6.935690124100081 7.181532779081136 -6.959023603932129 7.224310825439895 -6.982357083764182 C 7.254125827447517 -6.998560889203105 7.283292677237581 -7.015412846859586 7.313107679245201 -7.032264804516068 C 7.85107401981748 -7.336248194550285 8.390336664824874 -7.677176260985247 8.92700670096204 -8.051808242733172 L 8.92700670096204 -8.049215633862945 C 8.963951377362786 -8.075141722565224 9.000247901545979 -8.102364115702615 9.037192577946726 -8.128290204404895 C 9.039137034599396 -8.129586508840008 9.041081491252067 -8.130882813275122 9.042377795687182 -8.132179117710237 C 9.190156501290168 -8.237179776954465 9.336638902458041 -8.344124892851363 9.483769455843474 -8.453662617618491 C 9.536269785465587 -8.49255175067191 9.588770115087703 -8.532089035942885 9.641270444709818 -8.572274473431417 C 9.7002522965075 -8.616996976442847 9.759234148305184 -8.662367631671833 9.818216000102867 -8.707738286900822 C 9.918679593824196 -8.785516553007657 10.019143187545525 -8.865239275767165 10.119606781266855 -8.945610150744228 C 10.16173667540806 -8.97931406605719 10.203218417331705 -9.01366613358771 10.245348311472908 -9.047370048900671 C 10.335441469713324 -9.120611249484607 10.424886475736185 -9.194500602286102 10.513683329541488 -9.26903810730515 C 10.53247974385064 -9.284593760526517 10.551276158159792 -9.299501261530327 10.569424420251387 -9.315056914751695 L 10.569424420251387 -9.315056914751695 C 11.767209718296657 -10.326174374140558 12.918328056677828 -11.495440974613324 13.956019756986526 -12.783967583116567 C 13.957964213639196 -12.786560191986794 13.959908670291869 -12.789152800857025 13.9625012791621 -12.791745409727252 C 14.078520526104795 -12.935635202024896 14.193243468612378 -13.080173146540101 14.306021954467292 -13.226655547707976 C 15.210194297959257 -14.395273995963182 15.987328806810057 -15.609911251664933 16.619277218928097 -16.83815970393538 C 16.849371256160822 -17.280199516309228 17.04770583473325 -17.69825769663347 17.212984650210274 -18.08650087495009 C 17.21687356351562 -18.096223158213448 17.22076247682096 -18.105297289259244 17.224651390126297 -18.1150195725226 C 17.149465732889688 -18.22131653620194 17.080113445611097 -18.33215056540418 17.001687027286707 -18.435854920213295 C 16.934279196660782 -18.52529992623616 16.867519518252415 -18.61474493225902 16.795574622103594 -18.69965287275898 C 16.697055485034937 -18.820209185224574 16.59399928244337 -18.941413649907727 16.491591232069375 -19.061969962373322 C 16.46501699114954 -19.088544203293157 16.442331663535043 -19.11576659643055 16.415757422615208 -19.146877902873285 C 15.954921195932206 -19.666047829136414 15.435751269669082 -20.14049525238811 14.885470036963218 -20.56503495488792 C 14.598986756803038 -20.784110404422176 14.30407749781462 -20.99022280960529 13.994908890039946 -21.18272401821971 C 12.24878681594148 -22.281990179196317 10.190255372980564 -22.912642286879244 7.980056311111316 -22.912642286879244 C 2.011222539629233 -22.912642286879244 -2.8790859418380603 -18.29974295452633 -3.3133479276012263 -12.437854298941147 C -3.339922168521062 -12.155908084303867 -3.353533365089758 -11.86488773862079 -3.353533365089758 -11.57905261067817 C -3.353533365089758 -11.172013018052397 -3.3314961896928215 -10.773399404254864 -3.2906625999867325 -10.379971008197787 C -3.2906625999867325 -10.36182274610619 -3.286125534463834 -10.344322636232153 -3.286125534463834 -10.330711439663457 C -3.089087260326517 -8.549589145816922 -2.480472328040528 -6.8942083821764335 -1.5587998746745249 -5.462440133593102 C -1.4602807376058662 -5.314661427990114 -1.3617616005372077 -5.166882722387125 -1.2632424634685493 -5.023641082307037 C -1.2450942013769541 -4.997066841387198 -1.2275940915029162 -4.969844448249809 -1.209445829411321 -4.94780727285287 C -1.0973154957739664 -4.790954436204082 -0.985833314354168 -4.643823882818655 -0.8646288496710164 -4.496045177215667 C -0.7985173234802057 -4.41372984558593 -0.7311094928542818 -4.333358970608867 -0.6624053577932436 -4.253636247849361 C -0.03175325011031749 -3.5115019587466385 0.6941772335534822 -2.8477940879683032 1.4978859833241174 -2.2903831808693162 C 1.8465918763697635 -2.0440853381976645 2.2050200526787647 -1.8204728231405163 2.5809483388618055 -1.6195456356978575 C 3.220674577590529 -1.695379445152021 3.8876232094566436 -1.8431581507550057 4.572071951196799 -2.0667706658121574 C 8.02607511855786 -3.1627960657009844 11.905914292853847 -5.990684190902019 14.952877867589136 -9.94635717465217 Z" fill="#225777" transform="matrix(1,0,0,1,0,0)" fill-rule="nonzero"></path></g><g clip-path="url(#SvgjsClipPath417549ee28cc3-5fbf-489a-abc0-ad1c16a4ba20)"><path d=" M 1.3864038019043203 -5.391143389661835 C 1.5789050105187377 -5.369754366482457 1.7843692634842956 -5.359383931001542 1.9937224297551959 -5.359383931001542 C 2.1628901585375626 -5.359383931001542 2.337891257277944 -5.3736432797877995 2.512892356018323 -5.386606324138938 L 2.512892356018323 -10.149228818747511 L 0.8704746367289768 -10.149228818747511 L 0.8704746367289768 -5.480588395684698 C 1.0370497566411165 -5.442995567066397 1.2075137898585986 -5.411236108406104 1.387051954121877 -5.391143389661838 Z" fill="#225777" transform="matrix(1,0,0,1,0,0)" fill-rule="nonzero"></path></g><g clip-path="url(#SvgjsClipPath417549ee28cc3-5fbf-489a-abc0-ad1c16a4ba20)"><path d=" M 5.198186993356826 -12.834523456086009 L 3.555769274067478 -12.834523456086009 L 3.555769274067478 -5.53697763861215 C 4.087902244681747 -5.648459820031949 4.6375353251700515 -5.815034939944088 5.198186993356826 -6.028277019520328 L 5.198186993356826 -12.834523456086007 Z" fill="#225777" transform="matrix(1,0,0,1,0,0)" fill-rule="nonzero"></path></g><g clip-path="url(#SvgjsClipPath417549ee28cc3-5fbf-489a-abc0-ad1c16a4ba20)"><path d=" M 18.070490034038137 -12.198686130662628 C 18.08280492617171 -11.99322187769707 18.09252720943507 -11.787109472513956 18.09252720943507 -11.57905261067817 C 18.09252720943507 -6.77948543966885 14.729913504749538 -2.7525157119874315 10.236922332644665 -1.725194447159648 C 12.411473022548279 -3.6437250111282644 14.427226419150438 -6.185778008386674 16.017791961035222 -9.127092771660177 C 13.365553086792128 -5.684756344215138 10.11182895465617 -3.020850730056022 6.912549608794997 -1.5326932385452245 C 6.912549608794997 -1.5326932385452245 6.912549608794997 -1.5326932385452245 6.912549608794997 -1.5326932385452245 C 6.192452495089212 -1.1975985420682775 5.476892446906321 -0.9266709151294634 4.769758377551673 -0.7160214444234541 C 5.788653663551221 -0.41527881547701995 6.86458634469578 -0.24999999999999645 7.980056311111316 -0.24999999999999645 C 14.239910428276476 -0.24999999999999645 19.31364598731239 -5.32373555903591 19.31364598731239 -11.579052610678167 C 19.31364598731239 -12.435909842288474 19.215775002461285 -13.270729898501843 19.0349405337629 -14.07443864827248 C 18.7471609491676 -13.44702730167734 18.426973753694462 -12.82091225951731 18.070490034038137 -12.198686130662624 Z" fill="#225777" transform="matrix(1,0,0,1,0,0)" fill-rule="nonzero"></path></g><g clip-path="url(#SvgjsClipPath417549ee28cc3-5fbf-489a-abc0-ad1c16a4ba20)"><path d=" M 3.7463260260292266 -5.15586413468866 C 3.732714829460531 -5.199290333264976 3.7197517851093913 -5.242716531841289 3.70289982745291 -5.284846425982494 C 3.6951220008422263 -5.282253817112267 3.6866960220139857 -5.278364903806924 3.678918195403302 -5.275772294936697 C 3.7067887407582516 -5.23882761853595 3.7216962417620616 -5.19475326774208 3.7463260260292266 -5.15586413468866 Z" fill="#225777" transform="matrix(1,0,0,1,0,0)" fill-rule="nonzero"></path></g></g><g><path d=" M 0.4492497406698983 0.21776260342043952 Q 0.4492497406698983 0.21776260342043952 0.4336952689970098 0.2086129142010933 Q 0.41814079732412124 0.19946322498174712 0.3925216675099519 0.18802611345756437 Q 0.3669025376957825 0.17658900193338162 0.33670856327194004 0.16743931271403545 Q 0.3065145888480976 0.15828962349468922 0.2772355833461898 0.15828962349468922 Q 0.2543613602978243 0.15828962349468922 0.23972185754687036 0.1656093748701662 Q 0.22508235479591646 0.17292912624564316 0.22508235479591646 0.1903135357624009 Q 0.22508235479591646 0.2067829763572241 0.23972185754687036 0.21684763449850492 Q 0.2543613602978243 0.22691229263978568 0.2813529434948956 0.2351470129371973 Q 0.3083445266919668 0.24338173323460888 0.34585825249128627 0.2552763292197589 Q 0.40624620133897116 0.2735757076584513 0.4501647095918329 0.29736489962875146 Q 0.49408321784469467 0.32115409159905156 0.5178724098149947 0.3582103329374036 Q 0.5416616017852949 0.39526657427575573 0.5416616017852949 0.4565694920453752 Q 0.5416616017852949 0.5151275030491909 0.5206173165807987 0.5549286511533469 Q 0.4995730313763024 0.5947297992575028 0.4638892434208522 0.618518991227803 Q 0.42820545546540206 0.6423081831981031 0.3842869472125403 0.6528303258003512 Q 0.34036843895967855 0.6633524684025993 0.29461999286294754 0.6633524684025993 Q 0.24795657784428196 0.6633524684025993 0.19717580267691057 0.6537452947222858 Q 0.14639502750953914 0.6441381210419723 0.09881664356893893 0.6272111959861818 Q 0.05123825962833871 0.6102842709303914 0.011894595985150056 0.5874100478820259 L 0.08875198542765811 0.4309503622312059 Q 0.08875198542765811 0.4309503622312059 0.10705136386635052 0.44192998929442134 Q 0.1253507423050429 0.4529096163576368 0.15554471672888537 0.4666341501866561 Q 0.18573869115272781 0.4803586840156754 0.2227949324910799 0.4913383110788908 Q 0.259851173829432 0.5023179381421062 0.2973648996287514 0.5023179381421062 Q 0.3266439051306593 0.5023179381421062 0.33808101665484197 0.494540702305662 Q 0.3495181281790247 0.48676346646921775 0.3495181281790247 0.473953901562133 Q 0.3495181281790247 0.454739554201506 0.32938881189646313 0.44421741159925787 Q 0.3092594956139015 0.4336952689970098 0.2767780988852225 0.4240880953166962 Q 0.24429670215654348 0.4144809216363827 0.20495303851335483 0.4016713567292981 Q 0.1482249653534084 0.38245700936867105 0.11162620847602361 0.3582103329374036 Q 0.07502745159863881 0.33396365650613624 0.05764304208188104 0.3005672908555226 Q 0.04025863256512327 0.267170925204909 0.04025863256512327 0.21959254126430877 Q 0.04025863256512327 0.1473099964314738 0.0741124826767042 0.09881664356893893 Q 0.10796633278828513 0.05032329070640407 0.16332195256532964 0.02516164535320209 Q 0.21867757234237412 0 0.2827253968777975 0 Q 0.33030378081839773 0 0.37467977353222676 0.011437111524182808 Q 0.41905576624605584 0.022874223048365505 0.45794194542827715 0.03934366364318864 Q 0.4968281246104985 0.05581310423801178 0.5261071301124064 0.07045260698896572 L 0.4492497406698983 0.21776260342043952 M 1.1254157948391024 0.16103453026049308 L 0.93876213476444 0.16103453026049308 L 0.93876213476444 0.6551177481051877 L 0.7603431949871892 0.6551177481051877 L 0.7603431949871892 0.16103453026049308 L 0.5727745659905922 0.16103453026049308 L 0.5727745659905922 0.005489813531607712 L 1.1254157948391024 0.005489813531607712 L 1.1254157948391024 0.16103453026049308 M 1.1894850639586338 0.6551177481051877 L 1.1894850639586338 0.005489813531607712 L 1.4877649325093198 0.005489813531607712 Q 1.53534331644992 0.005489813531607712 1.5756019490150432 0.024704160892234706 Q 1.6158605815801665 0.04391850825286181 1.6451395870820744 0.07639990498154081 Q 1.674418592583982 0.10888130171021981 1.690430548717838 0.149139934275343 Q 1.7064425048516938 0.1893985668404663 1.7064425048516938 0.2305721683275242 Q 1.7064425048516938 0.2680858941268436 1.6954628777884784 0.30285471316035917 Q 1.684483250725263 0.3376235321938747 1.6634389655207666 0.36644505323481524 Q 1.6423946803162706 0.39526657427575573 1.6131156748143627 0.416310859480252 L 1.7503610131045555 0.6551177481051877 L 1.554557663810547 0.6551177481051877 L 1.4401865485687195 0.4556545231234407 L 1.3679040037358847 0.4556545231234407 L 1.3679040037358847 0.6551177481051877 L 1.1894850639586338 0.6551177481051877 M 1.3679040037358847 0.3001098063945553 L 1.4804451811338428 0.3001098063945553 Q 1.4914248081970582 0.3001098063945553 1.5014894663383391 0.2918750860971437 Q 1.5115541244796198 0.2836403657997321 1.5184163913941295 0.2680858941268436 Q 1.5252786583086393 0.25253142245395505 1.5252786583086393 0.2305721683275242 Q 1.5252786583086393 0.2076979452791587 1.517501422472195 0.19260095806723748 Q 1.5097241866357507 0.17750397085531622 1.498287075111568 0.16926925055790465 Q 1.4868499635873853 0.16103453026049308 1.4758703365241697 0.16103453026049308 L 1.3679040037358847 0.16103453026049308 L 1.3679040037358847 0.3001098063945553 M 2.084330477518888 0.6606075616367955 Q 2.006558119154445 0.6606075616367955 1.9507450149164334 0.6349884318226261 Q 1.8949319106784215 0.6093693020084567 1.8597056071839386 0.5645358248336604 Q 1.8244793036894558 0.519702347658864 1.8080098630946326 0.46160182111601566 Q 1.7915404224998095 0.4035012945731673 1.7915404224998095 0.33945347003774395 L 1.7915404224998095 0.005489813531607712 L 1.9699593622770604 0.005489813531607712 L 1.9699593622770604 0.33945347003774395 Q 1.9699593622770604 0.37147738230545563 1.9763641447306028 0.40075638780736345 Q 1.982768927184145 0.4300353933092713 1.9964934610131644 0.4529096163576368 Q 2.0102179948421837 0.4757838394060023 2.0317197645076472 0.4890508887740542 Q 2.053221534173111 0.5023179381421062 2.084330477518888 0.5023179381421062 Q 2.1163543897865997 0.5023179381421062 2.1383136439130306 0.4890508887740542 Q 2.1602728980394614 0.4757838394060023 2.173539947407513 0.45245213189666944 Q 2.1868069967755654 0.42912042438733666 2.1932117792291077 0.39984141888542885 Q 2.19961656168265 0.370562413383521 2.19961656168265 0.33945347003774395 L 2.19961656168265 0.005489813531607712 L 2.378035501459901 0.005489813531607712 L 2.378035501459901 0.33945347003774395 Q 2.378035501459901 0.4071611702609058 2.3601936074821754 0.46571918126472145 Q 2.3423517135044505 0.5242771922685371 2.3066679255490006 0.5681957005213989 Q 2.2709841375935502 0.6121142087742606 2.215628517816506 0.636360885205528 Q 2.1602728980394614 0.6606075616367955 2.084330477518888 0.6606075616367955 M 2.443895840114606 0.32481396728679 Q 2.443895840114606 0.2653409873610397 2.466312578702004 0.20815542974012602 Q 2.488729317289402 0.1509698721192123 2.531732856620329 0.10430645710054665 Q 2.5747363959512564 0.05764304208188109 2.636496798181843 0.029736489962875146 Q 2.69825720041243 0.0018299378438692004 2.7760295587768726 0.0018299378438692004 Q 2.8693563888142037 0.0018299378438692004 2.938894026881235 0.04071611702609057 Q 3.008431664948266 0.07960229620831194 3.042285515059847 0.1436501207437353 L 2.9059551456915886 0.24063682646880502 Q 2.8940605497064387 0.2086129142010933 2.8716438111190405 0.19122850468433555 Q 2.849227072531642 0.17384409516757776 2.8231504582565057 0.16698182825306812 Q 2.797073843981369 0.16011956133855848 2.772369683089134 0.16011956133855848 Q 2.73394098836788 0.16011956133855848 2.706034436248874 0.1752165485504797 Q 2.6781278841298684 0.1903135357624009 2.6602859901521434 0.21501769665463566 Q 2.642444096174418 0.23972185754687036 2.6337518914160394 0.26991583197071284 Q 2.6250596866576603 0.3001098063945553 2.6250596866576603 0.33030378081839773 Q 2.6250596866576603 0.36415763092997866 2.635124344798941 0.39526657427575573 Q 2.645189002940222 0.4263755176215328 2.664403350300849 0.45062219405280024 Q 2.683617697661476 0.4748688704840677 2.711524249780482 0.48859340431308695 Q 2.7394308018994877 0.5023179381421062 2.7741996209330035 0.5023179381421062 Q 2.798903781825238 0.5023179381421062 2.8245229116394075 0.494540702305662 Q 2.850142041453577 0.48676346646921775 2.8711863266580733 0.46937905695245996 Q 2.892230611862569 0.45199464743570217 2.9032102389257846 0.4227156419337943 L 3.0486902975133896 0.5096376895175831 Q 3.0294759501527624 0.5572160734581835 2.984642472977966 0.5910699235697644 Q 2.9398089958031695 0.6249237736813453 2.8830809226432232 0.6427656676590704 Q 2.8263528494832766 0.6606075616367955 2.770539745245265 0.6606075616367955 Q 2.69825720041243 0.6606075616367955 2.6383267360257125 0.631786040595855 Q 2.578396271638995 0.6029645195549145 2.5349352478471006 0.5549286511533469 Q 2.4914742240552057 0.5068927827517793 2.4676850320849057 0.44696231836506173 Q 2.443895840114606 0.38703185397834416 2.443895840114606 0.32481396728679 M 3.616866787261525 0.16103453026049308 L 3.4302131271868626 0.16103453026049308 L 3.4302131271868626 0.6551177481051877 L 3.2517941874096117 0.6551177481051877 L 3.2517941874096117 0.16103453026049308 L 3.064225558413015 0.16103453026049308 L 3.064225558413015 0.005489813531607712 L 3.616866787261525 0.005489813531607712 L 3.616866787261525 0.16103453026049308 M 3.9645764221807887 0.6606075616367955 Q 3.8868040638163457 0.6606075616367955 3.830990959578334 0.6349884318226261 Q 3.7751778553403224 0.6093693020084567 3.7399515518458393 0.5645358248336604 Q 3.7047252483513566 0.519702347658864 3.6882558077565335 0.46160182111601566 Q 3.6717863671617104 0.4035012945731673 3.6717863671617104 0.33945347003774395 L 3.6717863671617104 0.005489813531607712 L 3.8502053069389612 0.005489813531607712 L 3.8502053069389612 0.33945347003774395 Q 3.8502053069389612 0.37147738230545563 3.8566100893925035 0.40075638780736345 Q 3.8630148718460458 0.4300353933092713 3.876739405675065 0.4529096163576368 Q 3.8904639395040843 0.4757838394060023 3.911965709169548 0.4890508887740542 Q 3.9334674788350115 0.5023179381421062 3.9645764221807887 0.5023179381421062 Q 3.9966003344485004 0.5023179381421062 4.018559588574931 0.4890508887740542 Q 4.040518842701362 0.4757838394060023 4.053785892069414 0.45245213189666944 Q 4.067052941437466 0.42912042438733666 4.073457723891008 0.39984141888542885 Q 4.079862506344551 0.370562413383521 4.079862506344551 0.33945347003774395 L 4.079862506344551 0.005489813531607712 L 4.258281446121801 0.005489813531607712 L 4.258281446121801 0.33945347003774395 Q 4.258281446121801 0.4071611702609058 4.2404395521440765 0.46571918126472145 Q 4.222597658166351 0.5242771922685371 4.186913870210901 0.5681957005213989 Q 4.151230082255451 0.6121142087742606 4.095874462478406 0.636360885205528 Q 4.040518842701362 0.6606075616367955 3.9645764221807887 0.6606075616367955 M 4.359825572731957 0.6551177481051877 L 4.359825572731957 0.005489813531607712 L 4.658105441282643 0.005489813531607712 Q 4.705683825223243 0.005489813531607712 4.745942457788367 0.024704160892234706 Q 4.78620109035349 0.04391850825286181 4.815480095855397 0.07639990498154081 Q 4.8447591013573055 0.10888130171021981 4.860771057491161 0.149139934275343 Q 4.876783013625017 0.1893985668404663 4.876783013625017 0.2305721683275242 Q 4.876783013625017 0.2680858941268436 4.865803386561802 0.30285471316035917 Q 4.854823759498586 0.3376235321938747 4.83377947429409 0.36644505323481524 Q 4.812735189089594 0.39526657427575573 4.783456183587686 0.416310859480252 L 4.920701521877879 0.6551177481051877 L 4.72489817258387 0.6551177481051877 L 4.6105270573420425 0.4556545231234407 L 4.538244512509208 0.4556545231234407 L 4.538244512509208 0.6551177481051877 L 4.359825572731957 0.6551177481051877 M 4.538244512509208 0.3001098063945553 L 4.650785689907166 0.3001098063945553 Q 4.661765316970381 0.3001098063945553 4.671829975111662 0.2918750860971437 Q 4.681894633252943 0.2836403657997321 4.688756900167453 0.2680858941268436 Q 4.695619167081962 0.25253142245395505 4.695619167081962 0.2305721683275242 Q 4.695619167081962 0.2076979452791587 4.687841931245518 0.19260095806723748 Q 4.680064695409074 0.17750397085531622 4.668627583884891 0.16926925055790465 Q 4.657190472360709 0.16103453026049308 4.646210845297493 0.16103453026049308 L 4.538244512509208 0.16103453026049308 L 4.538244512509208 0.3001098063945553 M 5.1265583602589455 0.005489813531607712 L 5.326021585240692 0.005489813531607712 L 5.532804561597917 0.6551177481051877 L 5.351640715054862 0.6551177481051877 L 5.312297051411673 0.5279370679562756 L 5.13936792516603 0.5279370679562756 L 5.1009392304447765 0.6551177481051877 L 4.918860414979787 0.6551177481051877 L 5.1265583602589455 0.005489813531607712 M 5.2839330148317005 0.408991108104775 L 5.226289972749819 0.18024887762112013 L 5.1659020239021345 0.408991108104775 L 5.2839330148317005 0.408991108104775 M 5.585865610875422 0.6551177481051877 L 5.585865610875422 0.005489813531607712 L 5.764284550652674 0.005489813531607712 L 5.764284550652674 0.4995730313763024 L 6.058904543515621 0.4995730313763024 L 6.058904543515621 0.6551177481051877 L 5.585865610875422 0.6551177481051877 M 6.873232245183459 0.005489813531607712 L 6.873232245183459 0.6551177481051877 L 6.694813305406209 0.6551177481051877 L 6.694813305406209 0.40075638780736345 L 6.477050701985769 0.40075638780736345 L 6.477050701985769 0.6551177481051877 L 6.298631762208518 0.6551177481051877 L 6.298631762208518 0.005489813531607712 L 6.477050701985769 0.005489813531607712 L 6.477050701985769 0.24521167107847808 L 6.694813305406209 0.24521167107847808 L 6.694813305406209 0.005489813531607712 L 6.873232245183459 0.005489813531607712 M 7.446917759236466 0.4995730313763024 L 7.446917759236466 0.6551177481051877 L 6.983943484737548 0.6551177481051877 L 6.983943484737548 0.005489813531607712 L 7.438683038939054 0.005489813531607712 L 7.438683038939054 0.16103453026049308 L 7.162362424514799 0.16103453026049308 L 7.162362424514799 0.25253142245395505 L 7.39842440637393 0.25253142245395505 L 7.39842440637393 0.397096512119625 L 7.162362424514799 0.397096512119625 L 7.162362424514799 0.4995730313763024 L 7.446917759236466 0.4995730313763024 M 7.6793060157806226 0.005489813531607712 L 7.878769240762369 0.005489813531607712 L 8.085552217119593 0.6551177481051877 L 7.904388370576539 0.6551177481051877 L 7.86504470693335 0.5279370679562756 L 7.692115580687707 0.5279370679562756 L 7.6536868859664535 0.6551177481051877 L 7.471608070501464 0.6551177481051877 L 7.6793060157806226 0.005489813531607712 M 7.836680670353378 0.408991108104775 L 7.779037628271496 0.18024887762112013 L 7.7186496794238115 0.408991108104775 L 7.836680670353378 0.408991108104775 M 8.1386132663971 0.6551177481051877 L 8.1386132663971 0.005489813531607712 L 8.31703220617435 0.005489813531607712 L 8.31703220617435 0.4995730313763024 L 8.611652199037296 0.4995730313763024 L 8.611652199037296 0.6551177481051877 L 8.1386132663971 0.6551177481051877 M 9.09205779308071 0.16103453026049308 L 8.905404133006046 0.16103453026049308 L 8.905404133006046 0.6551177481051877 L 8.726985193228796 0.6551177481051877 L 8.726985193228796 0.16103453026049308 L 8.539416564232198 0.16103453026049308 L 8.539416564232198 0.005489813531607712 L 9.09205779308071 0.005489813531607712 L 9.09205779308071 0.16103453026049308 M 9.730727545175181 0.005489813531607712 L 9.730727545175181 0.6551177481051877 L 9.552308605397931 0.6551177481051877 L 9.552308605397931 0.40075638780736345 L 9.334546001977492 0.40075638780736345 L 9.334546001977492 0.6551177481051877 L 9.156127062200241 0.6551177481051877 L 9.156127062200241 0.005489813531607712 L 9.334546001977492 0.005489813531607712 L 9.334546001977492 0.24521167107847808 L 9.552308605397931 0.24521167107847808 L 9.552308605397931 0.005489813531607712 L 9.730727545175181 0.005489813531607712 M 10.53770779621307 0.6551177481051877 L 10.53770779621307 0.31291937130164 L 10.42882649450285 0.553556197770445 L 10.33366972662165 0.553556197770445 L 10.22478842491143 0.31291937130164 L 10.22478842491143 0.6551177481051877 L 10.04636948513418 0.6551177481051877 L 10.04636948513418 0.005489813531607712 L 10.241257865506254 0.005489813531607712 L 10.38124811056225 0.31108943345777074 L 10.522153324540183 0.005489813531607712 L 10.716126735990322 0.005489813531607712 L 10.716126735990322 0.6551177481051877 L 10.53770779621307 0.6551177481051877 M 11.11963160466084 0.6606075616367955 Q 11.045519121984137 0.6606075616367955 10.985131173136452 0.6327010095177895 Q 10.924743224288767 0.6047944573987837 10.881282200496873 0.5576735579191507 Q 10.837821176704978 0.5105526584395178 10.814489469195646 0.4515371629747349 Q 10.791157761686312 0.3925216675099519 10.791157761686312 0.32938881189646313 Q 10.791157761686312 0.2644260184391051 10.815861922578547 0.20586800743528944 Q 10.840566083470781 0.1473099964314738 10.884942076184611 0.10110406587377552 Q 10.92931806889844 0.054898135316077235 10.990163502207093 0.028364036579973217 Q 11.051008935515744 0.0018299378438692004 11.123291480348579 0.0018299378438692004 Q 11.197403963025284 0.0018299378438692004 11.257791911872967 0.029736489962875146 Q 11.318179860720653 0.05764304208188109 11.36118340005158 0.1052214260224813 Q 11.404186939382507 0.1527998099630815 11.42751864689184 0.21181530542786448 Q 11.450850354401172 0.27083080089264744 11.450850354401172 0.3330486875842016 Q 11.450850354401172 0.397096512119625 11.426603677969906 0.4556545231234407 Q 11.402357001538638 0.5142125341272563 11.35798100882481 0.5604184646849546 Q 11.31360501611098 0.6066243952426529 11.253217067263295 0.6336159784397242 Q 11.19282911841561 0.6606075616367955 11.11963160466084 0.6606075616367955 M 10.972321608229366 0.3312187497403324 Q 10.972321608229366 0.36415763092997866 10.981471297448714 0.3948090898147884 Q 10.990620986668059 0.4254605486995982 11.008920365106752 0.4497072251308656 Q 11.027219743545444 0.473953901562133 11.05512629566445 0.4881359198521197 Q 11.083032847783455 0.5023179381421062 11.12146154250471 0.5023179381421062 Q 11.159890237225964 0.5023179381421062 11.188254273805937 0.4876784353911523 Q 11.216618310385911 0.4730389326401984 11.234460204363636 0.4478772872869964 Q 11.25230209834136 0.4227156419337943 11.26099430309974 0.39206418304898455 Q 11.269686507858118 0.3614127241641748 11.269686507858118 0.32938881189646313 Q 11.269686507858118 0.2964499307068168 11.260536818638773 0.2662559562829744 Q 11.251387129419426 0.2360619818591319 11.233087750980733 0.21181530542786448 Q 11.214788372542042 0.18756862899659704 11.186424335962068 0.17384409516757776 Q 11.158060299382095 0.16011956133855848 11.120546573582775 0.16011956133855848 Q 11.08211787886152 0.16011956133855848 11.054211326742516 0.17475906408951236 Q 11.02630477462351 0.1893985668404663 11.008005396184817 0.21364524327173373 Q 10.989706017746125 0.23789191970300116 10.981013812987745 0.2685433785878109 Q 10.972321608229366 0.29919483747262066 10.972321608229366 0.3312187497403324 M 11.704310148642131 0.33579359435000544 L 11.704310148642131 0.6551177481051877 L 11.52589120886488 0.6551177481051877 L 11.52589120886488 0.005489813531607712 L 11.664966484998942 0.005489813531607712 L 11.925732627750309 0.33579359435000544 L 11.925732627750309 0.005489813531607712 L 12.104151567527559 0.005489813531607712 L 12.104151567527559 0.6551177481051877 L 11.962331384627694 0.6551177481051877 L 11.704310148642131 0.33579359435000544 M 12.214888719287446 0.6551177481051877 L 12.214888719287446 0.005489813531607712 L 12.393307659064696 0.005489813531607712 L 12.393307659064696 0.6551177481051877 L 12.214888719287446 0.6551177481051877 M 13.010011902362372 0.16103453026049308 L 12.823358242287709 0.16103453026049308 L 12.823358242287709 0.6551177481051877 L 12.644939302510458 0.6551177481051877 L 12.644939302510458 0.16103453026049308 L 12.45737067351386 0.16103453026049308 L 12.45737067351386 0.005489813531607712 L 13.010011902362372 0.005489813531607712 L 13.010011902362372 0.16103453026049308 M 13.35681907770043 0.6606075616367955 Q 13.282706595023727 0.6606075616367955 13.222318646176042 0.6327010095177895 Q 13.161930697328357 0.6047944573987837 13.118469673536463 0.5576735579191507 Q 13.075008649744568 0.5105526584395178 13.051676942235236 0.4515371629747349 Q 13.028345234725903 0.3925216675099519 13.028345234725903 0.32938881189646313 Q 13.028345234725903 0.2644260184391051 13.053049395618137 0.20586800743528944 Q 13.077753556510372 0.1473099964314738 13.122129549224201 0.10110406587377552 Q 13.16650554193803 0.054898135316077235 13.227350975246683 0.028364036579973217 Q 13.288196408555335 0.0018299378438692004 13.360478953388169 0.0018299378438692004 Q 13.434591436064874 0.0018299378438692004 13.494979384912558 0.029736489962875146 Q 13.555367333760243 0.05764304208188109 13.59837087309117 0.1052214260224813 Q 13.641374412422097 0.1527998099630815 13.66470611993143 0.21181530542786448 Q 13.688037827440763 0.27083080089264744 13.688037827440763 0.3330486875842016 Q 13.688037827440763 0.397096512119625 13.663791151009496 0.4556545231234407 Q 13.639544474578228 0.5142125341272563 13.5951684818644 0.5604184646849546 Q 13.55079248915057 0.6066243952426529 13.490404540302885 0.6336159784397242 Q 13.4300165914552 0.6606075616367955 13.35681907770043 0.6606075616367955 M 13.209509081268957 0.3312187497403324 Q 13.209509081268957 0.36415763092997866 13.218658770488304 0.3948090898147884 Q 13.22780845970765 0.4254605486995982 13.246107838146342 0.4497072251308656 Q 13.264407216585035 0.473953901562133 13.292313768704041 0.4881359198521197 Q 13.320220320823045 0.5023179381421062 13.3586490155443 0.5023179381421062 Q 13.397077710265554 0.5023179381421062 13.425441746845527 0.4876784353911523 Q 13.453805783425501 0.4730389326401984 13.471647677403226 0.4478772872869964 Q 13.48948957138095 0.4227156419337943 13.49818177613933 0.39206418304898455 Q 13.506873980897709 0.3614127241641748 13.506873980897709 0.32938881189646313 Q 13.506873980897709 0.2964499307068168 13.497724291678363 0.2662559562829744 Q 13.488574602459016 0.2360619818591319 13.470275224020323 0.21181530542786448 Q 13.451975845581632 0.18756862899659704 13.423611809001658 0.17384409516757776 Q 13.395247772421685 0.16011956133855848 13.357734046622365 0.16011956133855848 Q 13.31930535190111 0.16011956133855848 13.291398799782106 0.17475906408951236 Q 13.2634922476631 0.1893985668404663 13.245192869224407 0.21364524327173373 Q 13.226893490785715 0.23789191970300116 13.218201286027336 0.2685433785878109 Q 13.209509081268957 0.29919483747262066 13.209509081268957 0.3312187497403324 M 13.76307868190447 0.6551177481051877 L 13.76307868190447 0.005489813531607712 L 14.061358550455155 0.005489813531607712 Q 14.108936934395757 0.005489813531607712 14.149195566960879 0.024704160892234706 Q 14.189454199526002 0.04391850825286181 14.218733205027911 0.07639990498154081 Q 14.248012210529819 0.10888130171021981 14.264024166663674 0.149139934275343 Q 14.28003612279753 0.1893985668404663 14.28003612279753 0.2305721683275242 Q 14.28003612279753 0.2680858941268436 14.269056495734315 0.30285471316035917 Q 14.258076868671099 0.3376235321938747 14.237032583466602 0.36644505323481524 Q 14.215988298262108 0.39526657427575573 14.186709292760199 0.416310859480252 L 14.323954631050391 0.6551177481051877 L 14.128151281756383 0.6551177481051877 L 14.013780166514556 0.4556545231234407 L 13.941497621681721 0.4556545231234407 L 13.941497621681721 0.6551177481051877 L 13.76307868190447 0.6551177481051877 M 13.941497621681721 0.3001098063945553 L 14.05403879907968 0.3001098063945553 Q 14.065018426142895 0.3001098063945553 14.075083084284175 0.2918750860971437 Q 14.085147742425455 0.2836403657997321 14.092010009339965 0.2680858941268436 Q 14.098872276254475 0.25253142245395505 14.098872276254475 0.2305721683275242 Q 14.098872276254475 0.2076979452791587 14.09109504041803 0.19260095806723748 Q 14.083317804581586 0.17750397085531622 14.071880693057404 0.16926925055790465 Q 14.060443581533221 0.16103453026049308 14.049463954470006 0.16103453026049308 L 13.941497621681721 0.16103453026049308 L 13.941497621681721 0.3001098063945553 M 14.379756566234182 0.6551177481051877 L 14.379756566234182 0.005489813531607712 L 14.558175506011432 0.005489813531607712 L 14.558175506011432 0.6551177481051877 L 14.379756566234182 0.6551177481051877 M 14.847320875256514 0.33579359435000544 L 14.847320875256514 0.6551177481051877 L 14.668901935479264 0.6551177481051877 L 14.668901935479264 0.005489813531607712 L 14.807977211613325 0.005489813531607712 L 15.068743354364692 0.33579359435000544 L 15.068743354364692 0.005489813531607712 L 15.247162294141942 0.005489813531607712 L 15.247162294141942 0.6551177481051877 L 15.105342111242077 0.6551177481051877 L 14.847320875256514 0.33579359435000544 M 15.638794904935757 0.6596925927148608 Q 15.575662049322268 0.6596925927148608 15.518476491701353 0.6372758541274627 Q 15.46129093408044 0.6148591155400644 15.417372425827578 0.57139809174817 Q 15.373453917574716 0.5279370679562756 15.348292272221515 0.4661766657256888 Q 15.323130626868313 0.40441626349510196 15.323130626868313 0.32481396728679 Q 15.323130626868313 0.25619129814169356 15.348749756682482 0.19763328713787787 Q 15.37436888649665 0.13907527613406223 15.419659848132415 0.09469928342023315 Q 15.46495080976818 0.05032329070640407 15.525338758615863 0.02561912981416936 Q 15.585726707463548 0.0009149689219346557 15.656179314452514 0.0009149689219346557 Q 15.744016330958237 0.0009149689219346557 15.815383906869139 0.03888617918222137 Q 15.886751482780038 0.07685738944250808 15.921520301813555 0.14273515182180074 L 15.788849808133033 0.24429670215654348 Q 15.769635460772408 0.20586800743528944 15.731206766051153 0.18253629992595666 Q 15.692778071329899 0.15920459241662382 15.649774531998972 0.15920459241662382 Q 15.617750619731261 0.15920459241662382 15.591216520995156 0.1720141573237085 Q 15.564682422259052 0.18482372223079319 15.545010590437458 0.2076979452791587 Q 15.525338758615863 0.2305721683275242 15.514816616013615 0.2621385961342686 Q 15.504294473411367 0.29370502394101294 15.504294473411367 0.3312187497403324 Q 15.504294473411367 0.36964744446158637 15.515274100474583 0.40075638780736345 Q 15.526253727537798 0.4318653311531405 15.545925559359393 0.45428206974053875 Q 15.565597391180987 0.4766988083279369 15.593046458839025 0.4890508887740542 Q 15.620495526497065 0.5014029692201716 15.654349376608645 0.5014029692201716 Q 15.697352915939572 0.5014029692201716 15.73669657958276 0.47990119955470806 Q 15.77604024322595 0.45839942988924454 15.80806415549366 0.4190557662460559 L 15.80806415549366 0.5928998614136336 Q 15.734866641738892 0.6596925927148608 15.638794904935757 0.6596925927148608 M 15.798914466274315 0.43735514468474823 L 15.679053537500879 0.43735514468474823 L 15.679053537500879 0.3092594956139015 L 15.94622446270579 0.3092594956139015 L 15.94622446270579 0.6551177481051877 L 15.798914466274315 0.6551177481051877 L 15.798914466274315 0.43735514468474823" fill="#173054" fill-rule="nonzero"></path></g><g></g></g><defs><clipPath id="SvgjsClipPath41759"><path d=" M -3.353533365089758 -22.912642286879244 h 22.685327614493744 v 22.662642286879244 h -22.685327614493744 Z"></path></clipPath><clipPath id="SvgjsClipPath417549ee28cc3-5fbf-489a-abc0-ad1c16a4ba20"><path d=" M -3.353533365089758 -22.912642286879244 L 19.331794249403984 -22.912642286879244 L 19.331794249403984 -0.25 L -3.353533365089758 -0.25 Z"></path></clipPath></defs></svg>